<svg width="94" height="55" viewBox="0 0 94 55" fill="none" xmlns="http://www.w3.org/2000/svg">
<path d="M92.488 16.249V36.5092L30.2394 54.684V32.6961L92.488 16.249Z" fill="white"/>
<path d="M30.05 54.9392V32.5518L92.6775 16.002V36.6541L92.5411 36.6921L30.05 54.9392ZM30.4289 32.8448V54.4179L92.2986 36.3649V16.4929L30.4289 32.8448Z" fill="#161E2E"/>
<path d="M30.2396 32.6966L1.47803 20.4316V39.4893L30.2396 54.6844V32.6966Z" fill="white"/>
<path d="M30.4289 54.9999L1.28833 39.6031V20.1421L30.4289 32.5707V54.9999ZM1.66727 39.3748L30.0499 54.3682V32.8256L1.66727 20.7167V39.3748Z" fill="#161E2E"/>
<path d="M92.4882 16.2491L64.1321 5.4873L1.47803 20.4313L30.2396 32.6962L92.4882 16.2491Z" fill="#6B7280"/>
<path d="M30.2243 32.8982L30.0272 32.8145L30.175 32.4644L30.2546 32.4986L30.7775 32.3464L30.8761 32.727L30.2243 32.8982ZM31.6074 32.5177L31.5127 32.1371L32.244 31.9468L32.3426 32.3274L31.6074 32.5177ZM29.3338 32.5177L28.6365 32.2208L28.7843 31.8707L29.4816 32.1676L29.3338 32.5177ZM33.0777 32.1371L32.983 31.7566L33.7257 31.5853L33.8204 31.9659L33.0777 32.1371ZM27.9393 31.9126L27.242 31.6158L27.3898 31.2657L28.0871 31.5625L27.9393 31.9126ZM34.5442 31.7528L34.4457 31.3722L35.177 31.2048L35.2718 31.5853L34.5442 31.7528ZM36.0107 31.3722L35.9122 30.9917L36.6435 30.8242L36.7383 31.2048L36.0107 31.3722ZM26.5372 31.3266L25.8399 31.0297L25.9877 30.6796L26.685 30.9765L26.5372 31.3266ZM37.4658 30.9841L37.3711 30.6035L38.1063 30.4095L38.201 30.79L37.4658 30.9841ZM25.1389 30.7329L24.4454 30.4437L24.5932 30.0936L25.2943 30.3942L25.1389 30.7329ZM38.9323 30.5959L38.8376 30.2154L39.569 30.0213L39.6675 30.4018L38.9323 30.5959ZM40.3988 30.2154L40.3041 29.8348L41.0355 29.6408L41.134 30.0213L40.3988 30.2154ZM23.7444 30.1431L23.0472 29.8462L23.1949 29.4961L23.8922 29.793L23.7444 30.1431ZM41.8653 29.831L41.7706 29.4505L42.502 29.2564L42.5967 29.6369L41.8653 29.831ZM22.3575 29.5418L21.6602 29.245L21.808 28.8949L22.5053 29.1917L22.3575 29.5418ZM43.3394 29.4353L43.2409 29.0547L43.976 28.8606L44.0708 29.2412L43.3394 29.4353ZM44.8059 29.0547L44.7074 28.6742L45.4425 28.4801L45.5373 28.8606L44.8059 29.0547ZM20.963 28.9558L20.2657 28.6551L20.4135 28.305L21.1108 28.6057L20.963 28.9558ZM46.2686 28.6666L46.1739 28.286L46.909 28.0957L47.0038 28.4763L46.2686 28.6666ZM19.5647 28.3507L18.8674 28.0539L19.0152 27.7038L19.7125 28.0006L19.5647 28.3507ZM47.7465 28.2708L47.6518 27.8903L48.3831 27.6962L48.4816 28.0767L47.7465 28.2708ZM49.213 27.8903L49.1183 27.5097L49.8496 27.3156L49.9481 27.6962L49.213 27.8903ZM18.1891 27.7571L17.4919 27.4602L17.6397 27.1101L18.3369 27.407L18.1891 27.7571ZM50.6833 27.4983L50.5886 27.1178L51.3199 26.9237L51.4146 27.3042L50.6833 27.4983ZM16.7908 27.1596L16.0936 26.8628L16.2414 26.5127L16.9424 26.8095L16.7908 27.1596ZM52.1498 27.1101L52.0513 26.7296L52.7864 26.5355L52.8811 26.9161L52.1498 27.1101ZM53.6163 26.7296L53.5178 26.349L54.2529 26.1588L54.3476 26.5393L53.6163 26.7296ZM15.3774 26.566L14.6801 26.2577L14.8279 25.9076L15.5252 26.2044L15.3774 26.566ZM55.0601 26.3338L54.9653 25.9533L55.6967 25.7592L55.7952 26.1398L55.0601 26.3338ZM13.9829 25.9533L13.2856 25.6527L13.4334 25.3026L14.1307 25.6032L13.9829 25.9533ZM56.5266 25.9305L56.4318 25.5499L57.1632 25.3558L57.2617 25.7364L56.5266 25.9305ZM57.993 25.5499L57.8983 25.1694L58.6297 24.9753L58.7282 25.3558L57.993 25.5499ZM12.5884 25.3749L11.8911 25.078L12.0389 24.7279L12.7362 25.0248L12.5884 25.3749ZM59.4596 25.1732L59.3648 24.7926L60.0962 24.5985L60.1909 24.9791L59.4596 25.1732ZM60.9261 24.7926L60.8275 24.4121L61.5627 24.218L61.6574 24.5985L60.9261 24.7926ZM11.1939 24.7926L10.4966 24.4958L10.6444 24.1457L11.3417 24.4425L11.1939 24.7926ZM62.3926 24.4121L62.294 24.0315L63.0292 23.8375L63.1239 24.218L62.3926 24.4121ZM9.79939 24.1876L9.09456 23.8869L9.24235 23.5368L9.9396 23.8337L9.79939 24.1876ZM63.8553 24.0125L63.7605 23.632L64.4919 23.4379L64.5904 23.8184L63.8553 24.0125ZM65.3218 23.632L65.227 23.2514L65.9584 23.0573L66.0569 23.4379L65.3218 23.632ZM8.4011 23.5939L7.70385 23.2971L7.85164 22.947L8.55268 23.2438L8.4011 23.5939ZM66.7883 23.24L66.6935 22.8595L67.4249 22.6654L67.5196 23.0459L66.7883 23.24ZM7.0066 22.9965L6.30935 22.6996L6.45714 22.3495L7.15439 22.6464L7.0066 22.9965ZM68.2548 22.8328L68.16 22.4523L68.8914 22.262L68.9861 22.6426L68.2548 22.8328ZM69.7251 22.4523L69.6265 22.0717L70.3617 21.8777L70.4564 22.2582L69.7251 22.4523ZM5.6121 22.399L4.92622 22.1022L5.074 21.7521L5.77125 22.0489L5.6121 22.399ZM71.1878 22.0717L71.0892 21.6912L71.8244 21.4971L71.9191 21.8777L71.1878 22.0717ZM4.2176 21.8054L3.52035 21.5085L3.66813 21.1584L4.36538 21.4553L4.2176 21.8054ZM72.6505 21.6912L72.5557 21.3106L73.2871 21.1166L73.3856 21.4971L72.6505 21.6912ZM74.117 21.3106L74.0222 20.9301L74.7536 20.736L74.8521 21.1166L74.117 21.3106ZM2.82309 21.2117L2.12584 20.9301L2.27363 20.5496L2.97088 20.8502L2.82309 21.2117ZM75.5797 20.9111L75.4849 20.5305L76.2163 20.3403L76.311 20.7208L75.5797 20.9111ZM1.42859 20.6143L0.894287 20.3897L1.43617 20.2451L2.14858 20.0739L2.23574 20.4544L1.51575 20.6143L1.47786 20.4544L1.42859 20.6143ZM77.05 20.5229L76.9552 20.1424L77.6866 19.9483L77.7813 20.3288L77.05 20.5229ZM2.97088 20.268L2.88373 19.8874L3.64161 19.7124L3.72876 20.0929L2.97088 20.268ZM78.5165 20.1386L78.418 19.758L79.1531 19.564L79.2478 19.9445L78.5165 20.1386ZM4.44496 19.9179L4.3578 19.5373L5.09674 19.3585L5.18389 19.739L4.44496 19.9179ZM79.983 19.7504L79.8845 19.3699L80.6196 19.1758L80.7143 19.5563L79.983 19.7504ZM5.92283 19.5678L5.83567 19.1872L6.57082 19.0274L6.65797 19.4079L5.92283 19.5678ZM81.4457 19.3623L81.351 18.9817L82.0823 18.7876L82.1808 19.1682L81.4457 19.3623ZM7.39691 19.2139L7.30975 18.8333L8.0449 18.6583L8.13205 19.0388L7.39691 19.2139ZM82.9122 18.9741L82.8175 18.5936L83.5488 18.3995L83.6473 18.78L82.9122 18.9741ZM8.87099 18.8638L8.78383 18.4832L9.52276 18.3082L9.60992 18.6887L8.87099 18.8638ZM84.3787 18.586L84.284 18.2054L85.0153 18.0113L85.11 18.3919L84.3787 18.586ZM10.3451 18.5098L10.2579 18.1293L10.9893 17.9657L11.0764 18.3462L10.3451 18.5098ZM85.8452 18.2016L85.7505 17.8211L86.4818 17.627L86.5765 18.0075L85.8452 18.2016ZM11.8191 18.1597L11.732 17.7792L12.4709 17.6003L12.5581 17.9809L11.8191 18.1597ZM87.3117 17.8135L87.2132 17.4329L87.9483 17.2388L88.043 17.6194L87.3117 17.8135ZM13.2932 17.8135L13.2061 17.4329L13.945 17.2579L14.0322 17.6384L13.2932 17.8135ZM14.7711 17.4634L14.6839 17.0828L15.4191 16.9078L15.5062 17.2883L14.7711 17.4634ZM88.7782 17.4329L88.6797 17.0524L89.4148 16.8583L89.5095 17.2388L88.7782 17.4329ZM16.2452 17.1247L16.158 16.7441L16.8932 16.5691L16.9803 16.9496L16.2452 17.1247ZM90.2409 17.0562L90.1462 16.6756L90.8775 16.4854L90.976 16.8659L90.2409 17.0562ZM17.7192 16.7441L17.6321 16.3636L18.371 16.1885L18.4582 16.5691L17.7192 16.7441ZM91.7036 16.649L91.6089 16.2684L91.8628 16.1999L91.7112 16.1429L91.8438 15.7852L92.5524 16.0553L92.4236 16.394V16.4397L91.7036 16.649ZM19.1933 16.4016L19.1062 16.0211L19.8451 15.846L19.9323 16.2266L19.1933 16.4016ZM20.6674 16.0477L20.5802 15.6672L21.3192 15.4921L21.4063 15.8727L20.6674 16.0477ZM91.0026 15.8879L90.2939 15.6025L90.4304 15.2486L91.139 15.515L91.0026 15.8879ZM22.1453 15.6976L22.0581 15.3171L22.7933 15.1382L22.8804 15.5188L22.1453 15.6976ZM89.5967 15.3475L88.8881 15.0811L89.0245 14.7234L89.7331 14.9936L89.5967 15.3475ZM23.6307 15.3475L23.5436 14.967L24.2522 14.7995L24.3393 15.1801L23.6307 15.3475ZM25.1048 14.9974L25.0176 14.6169L25.7414 14.4609L25.8324 14.8414L25.1048 14.9974ZM88.1795 14.8148L87.4708 14.5446L87.6035 14.1907L88.2931 14.4609L88.1795 14.8148ZM26.5675 14.6435L26.4804 14.263L27.2382 14.0879L27.3254 14.4685L26.5675 14.6435ZM28.0416 14.2896L27.9544 13.9091L28.7123 13.734L28.7995 14.1146L28.0416 14.2896ZM86.7509 14.2896L86.0422 14.0194L86.1749 13.6655L86.8835 13.9319L86.7509 14.2896ZM29.5308 13.9547L29.4437 13.5742L30.2015 13.3953L30.2887 13.7759L29.5308 13.9547ZM85.3488 13.7492L84.6402 13.4829L84.7728 13.1252L85.4814 13.3953L85.3488 13.7492ZM30.9935 13.5856L30.9064 13.2051L31.6415 13.03L31.7287 13.4106L30.9935 13.5856ZM32.4676 13.2355L32.3805 12.855L33.1156 12.6761L33.2028 13.0567L32.4676 13.2355ZM83.9164 13.1975L83.204 12.9387L83.3404 12.5848L84.049 12.8512L83.9164 13.1975ZM33.9417 12.8854L33.8545 12.5049L34.6124 12.3298L34.6996 12.7104L33.9417 12.8854ZM82.4954 12.6609L81.7867 12.3907L81.9231 12.033L82.6318 12.3032L82.4954 12.6609ZM35.4158 12.5315L35.3286 12.151L36.0865 11.9759L36.1737 12.3565L35.4158 12.5315ZM36.8899 12.1776L36.8027 11.7971L37.5416 11.622L37.6288 12.0025L36.8899 12.1776ZM81.0933 12.1205L80.3847 11.8541L80.5173 11.4964L81.2297 11.7666L81.0933 12.1205ZM38.3829 11.8275L38.2919 11.447L39.0309 11.2719L39.118 11.6524L38.3829 11.8275ZM79.6874 11.5839L78.9788 11.3138L79.1114 10.9599L79.82 11.2262L79.6874 11.5839ZM39.8683 11.4774L39.7812 11.0969L40.5163 10.918L40.6035 11.2985L39.8683 11.4774ZM41.3424 11.1235L41.2552 10.7429L41.9904 10.5679L42.0775 10.9484L41.3424 11.1235ZM78.2702 11.0474L77.5615 10.7772L77.6942 10.4195L78.4028 10.6897L78.2702 11.0474ZM42.8165 10.7734L42.7293 10.3928L43.4872 10.2178L43.5744 10.5983L42.8165 10.7734ZM76.8529 10.507L76.1443 10.2368L76.2769 9.88292L76.9856 10.1531L76.8529 10.507ZM44.2906 10.4233L44.2034 10.0427L44.9613 9.8677L45.0484 10.2482L44.2906 10.4233ZM45.7646 10.0694L45.6775 9.68884L46.4354 9.51379L46.5225 9.89433L45.7646 10.0694ZM75.4092 9.97044L74.7005 9.70026L74.837 9.34635L75.5456 9.61273L75.4092 9.97044ZM47.2198 9.71928L47.1326 9.33874L47.8678 9.16369L47.9549 9.54423L47.2198 9.71928ZM73.9919 9.43007L73.2833 9.16369L73.4159 8.80598L74.1283 9.07616L73.9919 9.43007ZM48.6939 9.36538L48.6067 8.98483L49.3418 8.80978L49.429 9.19033L48.6939 9.36538ZM50.1679 9.01528L50.0808 8.63473L50.8159 8.45588L50.9069 8.83642L50.1679 9.01528ZM72.5747 8.8935L71.8661 8.62332L71.9987 8.26941L72.7073 8.5396L72.5747 8.8935ZM51.642 8.66518L51.5549 8.28463L52.3127 8.10958L52.3999 8.49013L51.642 8.66518ZM71.1574 8.35694L70.4488 8.08675L70.5815 7.72904L71.2901 7.99922L71.1574 8.35694ZM53.1161 8.31127L53.0289 7.93073L53.7679 7.75568L53.855 8.13622L53.1161 8.31127ZM54.5902 7.96117L54.503 7.58063L55.2609 7.40558L55.348 7.78612L54.5902 7.96117ZM69.7478 7.81656L69.0392 7.55018L69.1718 7.19247L69.8804 7.46266L69.7478 7.81656ZM56.0832 7.61107L55.996 7.23053L56.7312 7.05548L56.8183 7.43602L56.0832 7.61107ZM68.3381 7.2838L67.6257 7.01362L67.7621 6.65971L68.4708 6.92609L68.3381 7.2838ZM57.5573 7.26097L57.4701 6.88043L58.2053 6.70157L58.2924 7.08211L57.5573 7.26097ZM59.0313 6.90706L58.9442 6.52652L59.6831 6.35147L59.7703 6.73201L59.0313 6.90706ZM66.9171 6.74724L66.1895 6.46944L66.326 6.11173L67.0346 6.38191L66.9171 6.74724ZM60.5054 6.55696L60.4183 6.17642L61.1762 6.00137L61.2633 6.38191L60.5054 6.55696ZM65.4999 6.20686L64.7912 5.94048L64.9239 5.58277L65.6325 5.85296L65.4999 6.20686ZM61.9795 6.20686L61.8924 5.82632L62.6313 5.65127L62.7184 6.03181L61.9795 6.20686ZM63.4574 5.85296L63.3664 5.47241L64.1243 5.29736L64.2115 5.67791L63.4574 5.85296Z" fill="#161E2E"/>
<path d="M29.9098 27.0795L29.8491 27.0529L0 14.3199L64.6018 0L64.6511 0.0190272L94 10.1415L29.9098 27.0795ZM1.23914 14.434L29.9363 26.6761L92.6964 10.092L64.5791 0.380544L1.23914 14.434Z" fill="#161E2E"/>
<path d="M29.7356 50.0683V26.7296L93.5378 9.86768V31.2048L29.7356 50.0683ZM30.1145 27.0226V49.5622L93.1589 30.9346V10.3624L30.1145 27.0226Z" fill="#161E2E"/>
<path d="M30.1145 50.1366L0.428253 33.914V14.0801L30.1145 26.7522V50.1366ZM0.807194 33.6857L29.7355 49.4935V27.0186L0.807194 14.6661V33.6857Z" fill="#161E2E"/>
<path d="M64.3213 22.9923H63.9424V22.2312H64.3213V22.9923ZM64.3213 21.4701H63.9424V20.7091H64.3213V21.4701ZM64.3213 19.948H63.9424V19.1869H64.3213V19.948ZM64.3213 18.4258H63.9424V17.6647H64.3213V18.4258ZM64.3213 16.9036H63.9424V16.1425H64.3213V16.9036ZM64.3213 15.3814H63.9424V14.6204H64.3213V15.3814ZM64.3213 13.8593H63.9424V13.0982H64.3213V13.8593ZM64.3213 12.3371H63.9424V11.576H64.3213V12.3371ZM64.3213 10.8149H63.9424V10.0538H64.3213V10.8149ZM64.3213 9.29274H63.9424V8.53166H64.3213V9.29274ZM64.3213 7.77057H63.9424V7.00948H64.3213V7.77057ZM64.3213 6.24839H63.9424V5.4873H64.3213V6.24839Z" fill="#161E2E"/>
</svg>
