<svg width="59" height="54" viewBox="0 0 59 54" fill="none" xmlns="http://www.w3.org/2000/svg">
<path d="M7.625 8.16675V0.541748H12.7083V8.16675H20.3333V13.2501H12.7083V20.8751H7.625V13.2501H0V8.16675H7.625ZM15.25 23.4167V15.7917H22.875V8.16675H40.6667L45.3179 13.2501H58.4583V53.9167H7.625V23.4167H15.25ZM33.0417 46.2917C40.0567 46.2917 45.75 40.5984 45.75 33.5834C45.75 26.5684 40.0567 20.8751 33.0417 20.8751C26.0267 20.8751 20.3333 26.5684 20.3333 33.5834C20.3333 40.5984 26.0267 46.2917 33.0417 46.2917ZM25.4167 33.5834C25.4167 37.8026 28.8225 41.2084 33.0417 41.2084C37.2608 41.2084 40.6667 37.8026 40.6667 33.5834C40.6667 29.3642 37.2608 25.9584 33.0417 25.9584C28.8225 25.9584 25.4167 29.3642 25.4167 33.5834Z" fill="white"/>
</svg>
