<svg width="36" height="36" viewBox="0 0 36 36" fill="none" xmlns="http://www.w3.org/2000/svg">
<path d="M31.5 7.5V28.5H34.5V7.5H31.5ZM25.5 28.5H28.5V7.5H25.5V28.5ZM22.5 7.5H1.5V28.5H22.5V7.5ZM12 11.625C13.86 11.625 15.375 13.14 15.375 15C15.375 16.86 13.86 18.375 12 18.375C10.14 18.375 8.625 16.86 8.625 15C8.625 13.14 10.14 11.625 12 11.625ZM18.75 25.5H5.25V24.375C5.25 22.125 9.75 21 12 21C14.25 21 18.75 22.125 18.75 24.375V25.5Z" fill="#161E2E"/>
<rect x="2" y="9" width="19" height="17" fill="#161E2E"/>
<path d="M16 16H14.5V14H7.5C6.95 14 6.5 14.45 6.5 15V20.5H7.5C7.5 21.33 8.17 22 9 22C9.83 22 10.5 21.33 10.5 20.5H13.5C13.5 21.33 14.17 22 15 22C15.83 22 16.5 21.33 16.5 20.5H17.5V18L16 16ZM9 21.25C8.585 21.25 8.25 20.915 8.25 20.5C8.25 20.085 8.585 19.75 9 19.75C9.415 19.75 9.75 20.085 9.75 20.5C9.75 20.915 9.415 21.25 9 21.25ZM15.75 16.75L16.73 18H14.5V16.75H15.75ZM15 21.25C14.585 21.25 14.25 20.915 14.25 20.5C14.25 20.085 14.585 19.75 15 19.75C15.415 19.75 15.75 20.085 15.75 20.5C15.75 20.915 15.415 21.25 15 21.25Z" fill="white"/>
</svg>
