<svg width="42" height="61" viewBox="0 0 42 61" fill="none" xmlns="http://www.w3.org/2000/svg">
<path d="M37.5528 20.171L25.6239 49.511C23.3314 55.1493 16.9078 57.8594 11.2695 55.5669C5.6311 53.2745 2.92105 46.8509 5.21348 41.2125L18.1798 9.32133C19.6112 5.80055 23.6305 4.10487 27.1512 5.53635C30.672 6.96782 32.3677 10.9871 30.9362 14.5078L20.0446 41.2965C19.4741 42.6997 17.8592 43.381 16.456 42.8105C15.0528 42.2399 14.3715 40.6251 14.942 39.2219L24.7963 14.9845L20.9694 13.4286L11.115 37.6659C9.68356 41.1867 11.3792 45.2059 14.9 46.6374C18.4208 48.0689 22.44 46.3732 23.8715 42.8524L34.7632 16.0638C37.0556 10.4254 34.3456 4.00184 28.7072 1.7094C23.0688 -0.583031 16.6452 2.12702 14.3528 7.76538L1.38654 39.6566C-1.76686 47.4125 1.95757 56.2405 9.71351 59.3939C17.4695 62.5473 26.2974 58.8228 29.4508 51.0669L41.3798 21.727L37.5528 20.171Z" fill="white"/>
</svg>
