<svg width="26" height="26" viewBox="0 0 26 26" fill="none" xmlns="http://www.w3.org/2000/svg">
<circle cx="13" cy="13" r="12.5" stroke="#161E2E"/>
<path d="M13 16.3972C12.8788 16.3972 12.7758 16.3515 12.6909 16.2601C12.6061 16.1557 12.5576 16.0186 12.5455 15.849L12.1091 6.97902C12.0848 6.67879 12.1576 6.44382 12.3273 6.27413C12.497 6.09138 12.7212 6 13 6C13.2788 6 13.503 6.09138 13.6727 6.27413C13.8424 6.44382 13.9152 6.67879 13.8909 6.97902L13.4545 15.849C13.4424 16.0317 13.3939 16.1688 13.3091 16.2601C13.2242 16.3515 13.1212 16.3972 13 16.3972ZM13.0182 20C12.7273 20 12.4848 19.9021 12.2909 19.7063C12.097 19.4974 12 19.2298 12 18.9035C12 18.5772 12.097 18.3096 12.2909 18.1007C12.4848 17.8918 12.7273 17.7874 13.0182 17.7874C13.297 17.7874 13.5273 17.8918 13.7091 18.1007C13.903 18.3096 14 18.5772 14 18.9035C14 19.2298 13.903 19.4974 13.7091 19.7063C13.5273 19.9021 13.297 20 13.0182 20Z" fill="#161E2E"/>
</svg>
