<svg width="53" height="71" viewBox="0 0 53 71" fill="none" xmlns="http://www.w3.org/2000/svg">
<path d="M0.186035 10.7782V63.0911L14.5486 70.8292V19.6917L52.8139 6.27701L41.3872 4.38234L39.4412 0.177734L0.186035 10.7782Z" fill="#6B7280"/>
<path d="M14.4593 70.9926L0.0967425 63.2545L0 63.0913V10.7785L0.137672 10.6005L39.3928 0L39.6086 0.10011L41.5174 4.21573L52.8363 6.09557L52.8661 6.46634L14.7346 19.8217V70.8183L14.4593 70.9926ZM0.372086 62.9801L14.3625 70.518V19.6919L14.4853 19.5177L52.0661 6.34399L41.3537 4.56797L41.216 4.46044L39.337 0.400439L0.372086 10.9231V62.9801Z" fill="#161E2E"/>
<path d="M14.6229 71L14.3625 70.8295V19.692L14.4853 19.5177L52.7507 6.10303L52.9999 6.27729V53.9888L52.8883 54.1594L14.6229 71ZM14.7346 19.8329V70.5551L52.6279 53.8702V6.54054L14.7346 19.8329Z" fill="#161E2E"/>
<path d="M0.186035 10.7788L10.7645 12.6364L14.5486 19.6923V70.8298L10.7645 58.7202L0.186035 63.0917V10.7788Z" fill="white"/>
<path d="M14.37 70.8849L10.6491 58.9534L0.25674 63.2618L0 63.0912V10.7784L0.219531 10.5967L10.7979 12.4506L10.9282 12.5433L14.7123 19.588L14.7346 19.6733V70.8182L14.37 70.8849ZM10.6938 58.5455L10.9431 58.6642L14.3625 69.6095V19.74L10.6417 12.8028L0.372086 11.0008V62.8131L10.6938 58.5455Z" fill="#161E2E"/>
<path d="M10.7643 12.6362V58.72L7.36719 66.9624L14.5485 70.8296V19.6921L10.7643 12.6362Z" fill="white"/>
<path d="M14.4592 70.9929L7.2779 67.1108L7.19604 66.8772L10.5783 58.6683V12.6364L10.9281 12.5474L14.7122 19.5921L14.7345 19.6774V70.8186L14.4592 70.9929ZM7.60162 66.8772L14.3624 70.5183V19.7404L10.9504 13.3779V58.7202V58.7906L7.60162 66.8772Z" fill="#161E2E"/>
<path d="M26.1167 23.1622C25.8163 23.1702 25.5206 23.0875 25.2683 22.9249C25.0727 22.7879 24.9149 22.604 24.8095 22.3901C24.7042 22.1763 24.6546 21.9394 24.6655 21.7013C24.6655 20.5556 25.6404 19.2171 26.8534 18.7351L41.3648 12.7768C41.6384 12.6406 41.9414 12.5738 42.2471 12.5822C42.5528 12.5907 42.8517 12.674 43.1173 12.825C43.3131 12.9612 43.4713 13.1443 43.5773 13.3575C43.6833 13.5707 43.7337 13.8071 43.7238 14.0448C43.7238 15.1905 42.7489 16.529 41.5322 17.011L27.0209 22.9879C26.7339 23.1048 26.4266 23.164 26.1167 23.1622ZM42.2727 12.9399C42.0162 12.9477 41.7636 13.0043 41.5285 13.1067L27.0171 19.0614C25.9492 19.5026 25.0525 20.7077 25.06 21.7013C25.0458 21.8763 25.0762 22.052 25.1485 22.2121C25.2207 22.3722 25.3323 22.5115 25.473 22.6172C25.6901 22.7299 25.9314 22.7888 26.1762 22.7888C26.4211 22.7888 26.6623 22.7299 26.8795 22.6172L41.3908 16.6588C42.4587 16.2213 43.3592 15.0125 43.3517 14.0226C43.3619 13.8454 43.327 13.6686 43.2502 13.5085C43.1735 13.3484 43.0574 13.2102 42.9127 13.1067C42.7204 12.9896 42.4978 12.9316 42.2727 12.9399Z" fill="#161E2E"/>
<path d="M30.8163 7.80874L16.1598 11.954C14.9989 12.2803 14.0612 11.739 14.0724 10.749C14.0724 9.75903 15.0435 8.68378 16.2044 8.35379L30.8609 4.21221C32.0181 3.88593 32.9558 4.42726 32.9446 5.41723C32.9334 6.4035 31.9734 7.48246 30.8163 7.80874Z" fill="white"/>
<path d="M15.5011 12.2357C15.1171 12.2465 14.7404 12.1304 14.4295 11.9057C14.2532 11.7708 14.1122 11.5955 14.0183 11.3948C13.9244 11.1941 13.8804 10.9738 13.8899 10.7526C13.8899 9.68103 14.9169 8.52792 16.1522 8.17939L30.8087 4.03411C31.1033 3.93194 31.4177 3.89952 31.7271 3.93942C32.0364 3.97932 32.3322 4.09044 32.591 4.26399C32.764 4.40089 32.9019 4.57688 32.9931 4.7774C33.0843 4.97792 33.1263 5.1972 33.1156 5.4171C33.1156 6.48494 32.085 7.64176 30.8496 7.99029L16.208 12.1319C15.9781 12.198 15.7403 12.233 15.5011 12.2357ZM31.5194 4.30107C31.3141 4.3028 31.11 4.33274 30.9129 4.39005L16.2564 8.52792C15.1848 8.82825 14.2732 9.84418 14.262 10.7526C14.2523 10.9157 14.2829 11.0787 14.351 11.2274C14.4191 11.376 14.5227 11.5058 14.6527 11.6054C14.8656 11.7436 15.1077 11.831 15.3601 11.8605C15.6125 11.8901 15.8683 11.8612 16.1076 11.7759L30.7641 7.63064C31.8357 7.33031 32.7436 6.30326 32.7436 5.4134C32.7547 5.25139 32.7268 5.08908 32.6621 4.94005C32.5973 4.79103 32.4977 4.65964 32.3715 4.5569C32.1236 4.38023 31.824 4.29028 31.5194 4.30107Z" fill="#161E2E"/>
<path d="M39.4412 0.177734V10.9673L41.3202 10.3073L41.3872 4.38234L39.4412 0.177734Z" fill="#6B7280"/>
<path d="M39.5007 11.1418L39.2551 10.9676V0.177961L39.6272 0.100098L41.5918 4.38627L41.5249 10.3187L41.4021 10.493L39.5007 11.1418ZM39.6272 1.02333V10.7043L41.1379 10.1741L41.2011 4.42335L39.6272 1.02333Z" fill="#161E2E"/>
<path d="M0.186066 63.0912L10.7645 58.7197L14.5486 70.8293L0.186066 63.0912Z" fill="white"/>
<path d="M14.4592 70.9929L0.0966797 63.2548V62.9211L10.6751 58.5459L10.9244 58.6645L14.7048 70.7741L14.4592 70.9929ZM0.617601 63.1139L14.2322 70.4478L10.6491 58.9538L0.617601 63.1139Z" fill="#161E2E"/>
<path d="M10.7643 58.7197L7.36719 66.9621L14.5485 70.8293L10.7643 58.7197Z" fill="white"/>
<path d="M14.4592 70.9927L7.2779 67.1107L7.19604 66.8771L10.5932 58.6348H10.943L14.7234 70.7443L14.4592 70.9927ZM7.60162 66.8771L14.2322 70.4477L10.742 59.2614L7.60162 66.8771Z" fill="#161E2E"/>
<path d="M41.3873 4.38232L41.3203 10.3073L52.8141 6.27699L41.3873 4.38232Z" fill="#6B7280"/>
<path d="M41.3836 10.482L41.1343 10.304L41.2013 4.37162L41.4171 4.18994L52.8364 6.09573L52.8662 6.46651L41.3836 10.482ZM41.5733 4.6015L41.5101 10.0445L52.0699 6.33674L41.5733 4.6015Z" fill="#161E2E"/>
</svg>
