<svg width="64" height="67" viewBox="0 0 64 67" fill="none" xmlns="http://www.w3.org/2000/svg">
<path d="M0.164551 12.0333L1.25047 45.5994L31.3567 34.8577L31.564 4.4668L0.164551 12.0333Z" fill="#6B7280"/>
<path d="M1.31626 45.7574L1.09579 45.6062L0 12.0368L0.125045 11.8724L31.5245 4.3125L31.7285 4.47356L31.5212 34.8645L31.4126 35.019L1.31626 45.7574ZM0.329066 12.1617L1.4084 45.3596L31.1954 34.7429L31.3995 4.67406L0.329066 12.1617Z" fill="#161E2E"/>
<path d="M1.2504 45.5996L2.22114 49.0969L31.8436 37.3593L31.3566 34.8579L1.2504 45.5996Z" fill="#6B7280"/>
<path d="M2.28375 49.2478L2.06327 49.1393L1.09253 45.6453L1.19454 45.4448L31.3041 34.7031L31.518 34.828L32.005 37.3294L31.903 37.5134L2.28375 49.2478ZM1.45121 45.7045L2.33311 48.8764L31.6562 37.2571L31.2317 35.0778L1.45121 45.7045Z" fill="#161E2E"/>
<path d="M2.22119 49.097L31.1 65.9425L63.4439 48.8768L31.8437 37.3594L2.22119 49.097Z" fill="#6B7280"/>
<path d="M31.179 66.0869H31.0177L2.13893 49.2382L2.16197 48.9456L31.7779 37.208H31.8963L63.4867 48.7123L63.5064 49.0114L31.179 66.0869ZM2.59633 49.1264L31.1033 65.7385L63.0391 48.893L31.8437 37.5367L2.59633 49.1264Z" fill="#161E2E"/>
<path d="M31.1 65.9424L31.6594 57.9782L2.56674 43.7129L2.22122 49.0969L31.1 65.9424Z" fill="white"/>
<path d="M31.0178 66.0839L2.13903 49.2383L2.06006 49.0871L2.40229 43.7163L2.63921 43.5815L31.7319 57.8468L31.8241 58.0079L31.2614 65.9524L31.0178 66.0839ZM2.38912 48.9918L30.952 65.6533L31.4818 58.0637L2.7149 43.9661L2.38912 48.9918Z" fill="#161E2E"/>
<path d="M31.9655 32.3135L63.7138 42.4043L63.4439 48.8763L31.8438 37.3589L31.9655 32.3135Z" fill="#6B7280"/>
<path d="M63.388 49.0309L31.7977 37.5266L31.6924 37.3689L31.8141 32.3234L32.028 32.1689L63.7763 42.2631L63.8915 42.4274L63.6216 48.8961L63.388 49.0309ZM32.0083 37.2472L63.2893 48.6463L63.5427 42.5261L32.1267 32.5404L32.0083 37.2472Z" fill="#161E2E"/>
<path d="M63.444 48.8767L31.1001 65.9424L31.6595 57.9782L63.8356 43.0029L63.444 48.8767Z" fill="white"/>
<path d="M31.179 66.0869L30.9355 65.9291L31.4949 57.9681L31.5903 57.8301L63.7664 42.8516L64 43.0126L63.6084 48.8897L63.5196 49.0211L31.179 66.0869ZM31.8174 58.0865L31.2843 65.6464L63.2859 48.7647L63.6545 43.2591L31.8174 58.0865Z" fill="#161E2E"/>
<path d="M0.164551 12.0335L3.16892 6.88947L32.8342 0.161133L31.564 4.46701L0.164551 12.0335Z" fill="white"/>
<path d="M0.204035 12.1912L0.0230484 11.9513L3.02413 6.80723L3.13272 6.72834L32.798 0L32.9921 0.207076L31.7219 4.51295L31.6035 4.62471L0.204035 12.1912ZM3.29067 7.03402L0.500194 11.7836L31.4324 4.32888L32.5973 0.38457L3.29067 7.03402Z" fill="#161E2E"/>
<path d="M0.164551 12.0332L5.10712 16.109L6.15355 41.162L1.25047 45.5993L0.164551 12.0332Z" fill="white"/>
<path d="M1.36233 45.7212L1.08592 45.6061L0 12.0367L0.269834 11.9053L5.20582 15.9844L5.26505 16.106L6.31148 41.1589L6.25883 41.2871L1.36233 45.7212ZM0.329066 12.3917L1.39195 45.2413L5.98571 41.0866L4.93599 16.1881L0.329066 12.3917Z" fill="#161E2E"/>
<path d="M31.564 4.4668L35.8353 7.30999L36.0327 30.9594L31.3567 34.8577L31.564 4.4668Z" fill="white"/>
<path d="M31.462 34.983L31.1921 34.8581L31.3994 4.46387L31.6561 4.3291L35.934 7.17558L36.0064 7.31034L36.2038 30.9762L36.1446 31.1011L31.462 34.983ZM31.7252 4.77284L31.5245 34.513L35.8682 30.8973L35.6707 7.41224L31.7252 4.77284Z" fill="#161E2E"/>
<path d="M32.8342 0.161133L35.4634 3.23441L34.2426 5.4235L31.564 4.46701L32.8342 0.161133Z" fill="white"/>
<path d="M34.1866 5.58743L31.508 4.63094L31.406 4.42715L32.6762 0.114698L32.9592 0.0522461L35.5917 3.12881L35.6115 3.31616L34.3873 5.50197L34.1866 5.58743ZM31.7647 4.37127L34.1669 5.22916L35.2659 3.257L32.9065 0.495981L31.7647 4.37127Z" fill="#161E2E"/>
<path d="M3.16892 6.88965L5.10712 10.5579L3.91261 12.8784L0.164551 12.0337L3.16892 6.88965Z" fill="white"/>
<path d="M3.87641 13.0391L0.128349 12.1911L0.0230484 11.9512L3.02413 6.80713H3.31371L5.26507 10.4819V10.6331L4.07056 12.9537L3.87641 13.0391ZM0.417927 11.9216L3.82705 12.6907L4.936 10.5575L3.15905 7.23114L0.417927 11.9216Z" fill="#161E2E"/>
</svg>
