<svg width="64" height="60" viewBox="0 0 64 60" fill="none" xmlns="http://www.w3.org/2000/svg">
<path d="M31.8789 31.7322L0.637939 47.2823V15.9036L31.8789 0.35791V31.7322Z" fill="#C1C4CA"/>
<path d="M0.440014 47.6403V15.7667L32.121 0V31.8736L31.9978 31.9311L0.440014 47.6403ZM0.880028 16.0407V46.9289L31.681 31.5952V0.711445L0.880028 16.0407Z" fill="#161E2E"/>
<path d="M31.8789 59.6465L0.637939 47.3133V15.9346L31.8789 28.2678V59.6465Z" fill="white"/>
<path d="M32.1209 59.9689L31.8173 59.8496L0.439941 47.4634V15.6074L0.739151 15.7267L32.1209 28.1174V59.9689ZM0.879955 47.154L31.6809 59.3149V28.4179L0.879955 16.257V47.154Z" fill="#161E2E"/>
<path d="M63.3708 44.0654L32.1254 31.7322V0.35791L63.3708 12.6911V44.0654Z" fill="#C1C4CA"/>
<path d="M63.5907 44.3922L63.2915 44.2729L31.9053 31.9V0.0307617L32.2045 0.150072L63.5907 12.523V44.3922ZM32.3497 31.5774L63.1507 43.7382V12.8412L32.3497 0.680342V31.5774Z" fill="#161E2E"/>
<path d="M63.3709 44.0965L32.1255 59.6466V28.2679L63.3709 12.7178V44.0965Z" fill="white"/>
<path d="M31.9053 60.0001V28.1309L63.5863 12.3643V44.2335L63.4631 44.2953L31.9053 60.0001ZM32.3453 28.4049V59.2887L63.1463 43.9595V13.0757L32.3453 28.4049Z" fill="#161E2E"/>
<path d="M44.217 22.4922C44.4414 24.0874 45.4314 25.2673 46.8571 25.3733C48.7579 25.5191 50.6984 23.6544 51.1868 21.2151C51.3363 20.4982 51.3363 19.7579 51.1868 19.041L44.217 22.4922Z" fill="#161E2E"/>
<path d="M0.637939 15.9346L32.1253 23.8179L63.3707 8.76268L32.1253 0.35791L0.637939 15.9346Z" fill="white"/>
<path d="M32.1474 24.052H32.0726L0 16.0007L32.121 0.119141H32.2002L64 8.70509L32.1474 24.052ZM1.27164 15.8637L32.121 23.588L62.7416 8.83766L32.1474 0.591964L1.27164 15.8637Z" fill="#161E2E"/>
<path d="M31.9272 27.0567L32.1253 28.2675L63.3706 12.7174L61.8438 12.0854L31.9272 27.0567Z" fill="white"/>
<path d="M31.9582 28.5992L31.681 26.9554L31.8262 26.8803L61.8351 11.856L63.9032 12.7088L31.9582 28.5992ZM32.1694 27.1807L32.2926 27.9364L62.8384 12.7353L61.8527 12.3288L32.1694 27.1807Z" fill="#161E2E"/>
<path d="M43.0288 18.891C43.284 20.7249 44.4281 22.0815 46.0429 22.2008C48.243 22.3687 50.443 20.23 51.0195 17.4195C51.1916 16.5963 51.1916 15.7461 51.0195 14.9229L43.0288 18.891Z" fill="white"/>
<path d="M46.2806 22.4348H46.0254C44.3534 22.311 43.0905 20.9367 42.8133 18.935V18.7759L51.1736 14.6133L51.2308 14.8873C51.4115 15.7409 51.4115 16.6231 51.2308 17.4767C50.6764 20.2651 48.4851 22.4348 46.2806 22.4348ZM43.2709 19.0013C43.5613 20.6981 44.6438 21.8559 46.0606 21.9664C48.1199 22.1299 50.2627 20.0574 50.804 17.3574C50.9491 16.6578 50.9655 15.9375 50.8524 15.2319L43.2709 19.0013Z" fill="#161E2E"/>
</svg>
