<svg width="34" height="18" viewBox="0 0 34 18" fill="none" xmlns="http://www.w3.org/2000/svg">
<path d="M33.5 3C33.5 4.65 32.15 6 30.5 6C30.23 6 29.975 5.97 29.735 5.895L24.395 11.22C24.47 11.46 24.5 11.73 24.5 12C24.5 13.65 23.15 15 21.5 15C19.85 15 18.5 13.65 18.5 12C18.5 11.73 18.53 11.46 18.605 11.22L14.78 7.395C14.54 7.47 14.27 7.5 14 7.5C13.73 7.5 13.46 7.47 13.22 7.395L6.395 14.235C6.47 14.475 6.5 14.73 6.5 15C6.5 16.65 5.15 18 3.5 18C1.85 18 0.5 16.65 0.5 15C0.5 13.35 1.85 12 3.5 12C3.77 12 4.025 12.03 4.265 12.105L11.105 5.28C11.03 5.04 11 4.77 11 4.5C11 2.85 12.35 1.5 14 1.5C15.65 1.5 17 2.85 17 4.5C17 4.77 16.97 5.04 16.895 5.28L20.72 9.105C20.96 9.03 21.23 9 21.5 9C21.77 9 22.04 9.03 22.28 9.105L27.605 3.765C27.53 3.525 27.5 3.27 27.5 3C27.5 1.35 28.85 0 30.5 0C32.15 0 33.5 1.35 33.5 3Z" fill="#161E2E"/>
</svg>
