<svg width="18" height="18" viewBox="0 0 18 18" fill="none" xmlns="http://www.w3.org/2000/svg">
<path d="M10.1967 8.99996L17.2137 1.98289C17.3723 1.82417 17.4613 1.60901 17.4612 1.38469C17.4611 1.16037 17.372 0.945262 17.2134 0.786646C17.0547 0.62803 16.8396 0.538889 16.6153 0.538818C16.391 0.538748 16.1758 0.627754 16.0171 0.786271L9.00004 7.80335L1.98297 0.786271C1.82425 0.627754 1.60909 0.538748 1.38477 0.538818C1.16045 0.538889 0.945342 0.62803 0.786725 0.786646C0.628109 0.945262 0.538968 1.16037 0.538897 1.38469C0.538827 1.60901 0.627833 1.82417 0.78635 1.98289L7.80343 8.99996L0.78635 16.017C0.707698 16.0956 0.645296 16.1889 0.602708 16.2916C0.56012 16.3942 0.538182 16.5043 0.538147 16.6155C0.538112 16.7266 0.559981 16.8367 0.602505 16.9394C0.645028 17.0421 0.707372 17.1354 0.785975 17.214C0.864577 17.2926 0.957898 17.355 1.0606 17.3975C1.16331 17.44 1.27339 17.4619 1.38455 17.4619C1.49571 17.4618 1.60577 17.4399 1.70845 17.3973C1.81113 17.3547 1.90441 17.2923 1.98297 17.2137L9.00004 10.1966L16.0171 17.2137C16.1758 17.3722 16.391 17.4612 16.6153 17.4611C16.8396 17.461 17.0547 17.3719 17.2134 17.2133C17.372 17.0547 17.4611 16.8396 17.4612 16.6152C17.4613 16.3909 17.3723 16.1758 17.2137 16.017L10.1967 8.99996Z" fill="white"/>
</svg>
