<svg width="30" height="28" viewBox="0 0 30 28" fill="none" xmlns="http://www.w3.org/2000/svg">
<path d="M29.85 9.335L27.735 0.5H22.11H19.095H16.5H13.5H10.92H7.89001H2.26501L0.15001 9.335C-0.20999 10.865 0.12001 12.425 1.08001 13.655C1.20001 13.82 1.36501 13.94 1.50001 14.09V27.5H28.5V14.09C28.635 13.955 28.8 13.82 28.92 13.67C29.88 12.44 30.225 10.865 29.85 9.335ZM7.53001 3.5L6.66001 10.79C6.54001 11.765 5.76001 12.5 4.84501 12.5C4.11001 12.5 3.64501 12.065 3.45001 11.795C3.06001 11.3 2.92501 10.655 3.07501 10.04L4.63501 3.5H7.53001ZM25.365 3.5L26.94 10.04C27.09 10.67 26.955 11.3 26.565 11.795C26.355 12.065 25.905 12.5 25.155 12.5C24.24 12.5 23.445 11.765 23.34 10.79L22.47 3.5H25.365ZM20.265 10.28C20.34 10.865 20.16 11.45 19.77 11.885C19.425 12.275 18.945 12.5 18.33 12.5C17.325 12.5 16.5 11.615 16.5 10.535V3.5H19.44L20.265 10.28ZM13.5 10.535C13.5 11.615 12.675 12.5 11.565 12.5C11.055 12.5 10.59 12.275 10.23 11.885C9.85501 11.45 9.67501 10.865 9.73501 10.28L10.56 3.5H13.5V10.535ZM4.50001 24.5V15.455C4.62001 15.47 4.72501 15.5 4.84501 15.5C6.15001 15.5 7.33501 14.96 8.20501 14.075C9.10501 14.975 10.305 15.5 11.67 15.5C12.975 15.5 14.145 14.96 15.015 14.105C15.9 14.96 17.1 15.5 18.45 15.5C19.71 15.5 20.91 14.975 21.81 14.075C22.68 14.96 23.865 15.5 25.17 15.5C25.29 15.5 25.395 15.47 25.515 15.455V24.5H4.50001Z" fill="#161E2E"/>
</svg>
