<svg width="30" height="30" viewBox="0 0 30 30" fill="none" xmlns="http://www.w3.org/2000/svg">
<path d="M26.1449 16.47C26.2049 15.99 26.2499 15.51 26.2499 15C26.2499 14.49 26.2049 14.01 26.1449 13.53L29.3099 11.055C29.5949 10.83 29.6699 10.425 29.4899 10.095L26.4899 4.905C26.3549 4.665 26.0999 4.53 25.8299 4.53C25.7399 4.53 25.6499 4.545 25.5749 4.575L21.8399 6.075C21.0599 5.475 20.2199 4.98 19.3049 4.605L18.7349 0.63C18.6899 0.27 18.3749 0 17.9999 0H11.9999C11.6249 0 11.3099 0.27 11.2649 0.63L10.6949 4.605C9.77991 4.98 8.93991 5.49 8.15991 6.075L4.42491 4.575C4.33491 4.545 4.24491 4.53 4.15491 4.53C3.89991 4.53 3.64491 4.665 3.50991 4.905L0.509912 10.095C0.314912 10.425 0.404912 10.83 0.689912 11.055L3.85491 13.53C3.79491 14.01 3.74991 14.505 3.74991 15C3.74991 15.495 3.79491 15.99 3.85491 16.47L0.689912 18.945C0.404912 19.17 0.329912 19.575 0.509912 19.905L3.50991 25.095C3.64491 25.335 3.89991 25.47 4.16991 25.47C4.25991 25.47 4.34991 25.455 4.42491 25.425L8.15991 23.925C8.93991 24.525 9.77991 25.02 10.6949 25.395L11.2649 29.37C11.3099 29.73 11.6249 30 11.9999 30H17.9999C18.3749 30 18.6899 29.73 18.7349 29.37L19.3049 25.395C20.2199 25.02 21.0599 24.51 21.8399 23.925L25.5749 25.425C25.6649 25.455 25.7549 25.47 25.8449 25.47C26.0999 25.47 26.3549 25.335 26.4899 25.095L29.4899 19.905C29.6699 19.575 29.5949 19.17 29.3099 18.945L26.1449 16.47ZM23.1749 13.905C23.2349 14.37 23.2499 14.685 23.2499 15C23.2499 15.315 23.2199 15.645 23.1749 16.095L22.9649 17.79L24.2999 18.84L25.9199 20.1L24.8699 21.915L22.9649 21.15L21.4049 20.52L20.0549 21.54C19.4099 22.02 18.7949 22.38 18.1799 22.635L16.5899 23.28L16.3499 24.975L16.0499 27H13.9499L13.6649 24.975L13.4249 23.28L11.8349 22.635C11.1899 22.365 10.5899 22.02 9.98991 21.57L8.62491 20.52L7.03491 21.165L5.12991 21.93L4.07991 20.115L5.69991 18.855L7.03491 17.805L6.82491 16.11C6.77991 15.645 6.74991 15.3 6.74991 15C6.74991 14.7 6.77991 14.355 6.82491 13.905L7.03491 12.21L5.69991 11.16L4.07991 9.9L5.12991 8.085L7.03491 8.85L8.59491 9.48L9.94491 8.46C10.5899 7.98 11.2049 7.62 11.8199 7.365L13.4099 6.72L13.6499 5.025L13.9499 3H16.0349L16.3199 5.025L16.5599 6.72L18.1499 7.365C18.7949 7.635 19.3949 7.98 19.9949 8.43L21.3599 9.48L22.9499 8.835L24.8549 8.07L25.9049 9.885L24.2999 11.16L22.9649 12.21L23.1749 13.905ZM14.9999 9C11.6849 9 8.99991 11.685 8.99991 15C8.99991 18.315 11.6849 21 14.9999 21C18.3149 21 20.9999 18.315 20.9999 15C20.9999 11.685 18.3149 9 14.9999 9ZM14.9999 18C13.3499 18 11.9999 16.65 11.9999 15C11.9999 13.35 13.3499 12 14.9999 12C16.6499 12 17.9999 13.35 17.9999 15C17.9999 16.65 16.6499 18 14.9999 18Z" fill="#161E2E"/>
</svg>
