<svg width="29" height="24" viewBox="0 0 29 24" fill="none" xmlns="http://www.w3.org/2000/svg">
<path d="M3.00003 9.75C1.75503 9.75 0.750031 10.755 0.750031 12C0.750031 13.245 1.75503 14.25 3.00003 14.25C4.24503 14.25 5.25003 13.245 5.25003 12C5.25003 10.755 4.24503 9.75 3.00003 9.75ZM3.00003 0.75C1.75503 0.75 0.750031 1.755 0.750031 3C0.750031 4.245 1.75503 5.25 3.00003 5.25C4.24503 5.25 5.25003 4.245 5.25003 3C5.25003 1.755 4.24503 0.75 3.00003 0.75ZM3.00003 18.75C1.75503 18.75 0.750031 19.77 0.750031 21C0.750031 22.23 1.77003 23.25 3.00003 23.25C4.23003 23.25 5.25003 22.23 5.25003 21C5.25003 19.77 4.24503 18.75 3.00003 18.75ZM7.50003 22.5H28.5V19.5H7.50003V22.5ZM7.50003 13.5H28.5V10.5H7.50003V13.5ZM7.50003 1.5V4.5H28.5V1.5H7.50003Z" fill="#161E2E"/>
</svg>
